<svg id="Logo" xmlns="http://www.w3.org/2000/svg" viewBox="0 0 427.52 85.57"><defs><style>.cls-1{fill:#fff;}</style></defs><title>logo-white</title><path class="cls-1" d="M412,373.91V420h99.5V373.91Zm26.23,38.48H420.3V380.25h4.2v28.66h13.73Zm11.16,0h-4.2V380.25h4.2Zm26.89-28.66H463.17v10.68h12.11v3.44H463.17v14.54H459V380.25h17.31Zm26.42,28.66H484.58V380.25H502v3.48H488.77v10.16h12.45v3.43H488.77v11.59H502.7Z" transform="translate(-83.98 -351.96)"/><g id="Crown"><path class="cls-1" d="M139.33,426.76a45.57,45.57,0,0,1-14.88,3.94c-9.57.52-17.58-1.36-17-9.8.76-5.27,8.44-7.06,8.44-7.06s.45-.06,1-.18c0-.58,0-1.19.06-1.68-.43-.07-.92-.15-1.5-.22-7.84-1-13.32-8.15-8-14.8,3.94-4.88,12.28-6.66,16.44-7.27a16,16,0,0,1,7.35.43c2.58,1,4,3.11-.36,5.84-7,4.37-21.39,2.19-21.39,2.19-1.93,1.29-1.61,2.28-1.61,2.28,35.79,4.28,34.39-9.23,29-11.72s-22.68-2.78-32.78,7.25,1.18,18.78,1.18,18.78c-3.54,1.59-11.39,15.09,2.79,19.86s33.21-4.27,33.21-4.27C140.51,429.93,139.33,426.76,139.33,426.76Z" transform="translate(-83.98 -351.96)"/><path class="cls-1" d="M157,384.05c18.91-18.08,28.58-19.27,28.58-19.27l6.88-12.32s-34,8.74-51,47.94c0,0-6.79,18.23,2,29.19,2.59-1.09,7.08-3,9.29-3.83h0c3.09-1.31,7.59-2.95,11.29-3.23h0c.25,0,.49,0,.74,0h.51c7.82.1,8.79,7.2,8.91,9.39,2.49-3.3,2.86-7.17,1.19-9,0,0-4.62-9.93-28.15.7C147.18,423.58,138,402.12,157,384.05Z" transform="translate(-83.98 -351.96)"/><path class="cls-1" d="M179.65,374.91s-8.18,21.85-9.46,36.71a25.44,25.44,0,0,0-7.43.77S166.77,387.9,179.65,374.91Z" transform="translate(-83.98 -351.96)"/><path class="cls-1" d="M157.17,369.45s-4.3,5.26-5.48,6.85L137,360.21S123,378.39,121.49,381c0,0-9-10.63-28.27-21.36,0,0,23,31.74,4.09,35.39,0,0,2.69-23.07-13.33-43,0,0,23.1,7.85,36.7,17.68,0,0,14-15.09,16.29-17.18C137,352.46,152.87,365.17,157.17,369.45Z" transform="translate(-83.98 -351.96)"/><path class="cls-1" d="M166.84,405.67S153.57,409.2,149,417.36c0,0,7.2-5.21,20.69-5.74Z" transform="translate(-83.98 -351.96)"/><path class="cls-1" d="M169.74,427.82c-.67,1.3-2.26,2.76-5.91,3.6-6.82,1.58-11.22.14-13.86-2.75-2,.69-4.23,1.49-5.6,2.09A20.39,20.39,0,0,0,153,436c7.43,2.49,13.06,1.7,16.91-.46C171.25,432.14,170.69,429.16,169.74,427.82Z" transform="translate(-83.98 -351.96)"/></g><g id="Text"><path id="V" class="cls-1" d="M385.93,412.39l-10.54-32.14h4.53l5,15.83c1.34,4.34,2.53,8.3,3.44,12h.09c.91-3.72,2.2-7.77,3.67-12l5.44-15.88H402l-11.5,32.14Z" transform="translate(-83.98 -351.96)"/><path id="S" class="cls-1" d="M352.45,407.34a14.09,14.09,0,0,0,7.39,2.1c4.25,0,6.73-2.2,6.73-5.49,0-2.95-1.72-4.72-6.06-6.34-5.24-1.91-8.49-4.67-8.49-9.16,0-5,4.15-8.72,10.4-8.72a14.44,14.44,0,0,1,7.06,1.57l-1.15,3.39a11.88,11.88,0,0,0-6.05-1.53c-4.39,0-6.06,2.62-6.06,4.82,0,3,1.95,4.48,6.39,6.2,5.44,2.14,8.15,4.72,8.15,9.44,0,5-3.62,9.3-11.2,9.3a16.61,16.61,0,0,1-8.2-2.1Z" transform="translate(-83.98 -351.96)"/><path id="U" class="cls-1" d="M323.89,380.25v19.08c0,7.15,3.2,10.2,7.49,10.2,4.72,0,7.82-3.15,7.82-10.2V380.25h4.2V399c0,9.87-5.2,13.88-12.16,13.88-6.58,0-11.54-3.72-11.54-13.74V380.25Z" transform="translate(-83.98 -351.96)"/><path id="L" class="cls-1" d="M296.52,380.25h4.2v28.66h13.73v3.48H296.52Z" transform="translate(-83.98 -351.96)"/><path id="C" class="cls-1" d="M288.94,411.39a20.38,20.38,0,0,1-8.48,1.53c-9.06,0-15.83-5.73-15.83-16.31,0-10.11,6.81-16.88,16.78-16.88a17.45,17.45,0,0,1,7.63,1.43L288,384.54a14.79,14.79,0,0,0-6.44-1.33C274,383.21,269,388,269,396.47c0,7.91,4.53,12.92,12.3,12.92a16.68,16.68,0,0,0,6.82-1.34Z" transform="translate(-83.98 -351.96)"/><path id="X" class="cls-1" d="M256.09,412.39l-4.15-7.1c-1.67-2.72-2.67-4.49-3.67-6.34h-.09c-.91,1.85-1.86,3.57-3.48,6.38l-3.87,7.06h-4.77l9.83-16.26-9.44-15.88h4.81l4.25,7.54c1.19,2.09,2.09,3.72,3,5.43h.15c.9-1.9,1.71-3.38,2.9-5.43l4.34-7.54h4.82l-9.78,15.64,10,16.5Z" transform="translate(-83.98 -351.96)"/><path id="E" class="cls-1" d="M229.25,397.32H216.8v11.59h13.93v3.48H212.61V380.25H230v3.48H216.8v10.16h12.45Z" transform="translate(-83.98 -351.96)"/></g></svg>