<?xml version="1.0" encoding="UTF-8"?>
<svg id="Layer_1" xmlns="http://www.w3.org/2000/svg" version="1.1" xmlns:serif="http://www.serif.com/" viewBox="0 0 448 512">
  <!-- Generator: Adobe Illustrator 29.1.0, SVG Export Plug-In . SVG Version: 2.1.0 Build 142)  -->
  <path d="M228.6,413.7c-19.3,10.6-39.9,17.2-61.1,19.4-39.3,2.6-72.1-6.7-69.8-48.3,3.1-26,34.6-34.8,34.6-34.8,0,0,1.8-.3,4.1-.9,0-2.9,0-5.9.2-8.3-1.8-.3-3.8-.7-6.2-1.1-32.2-4.9-54.7-40.2-32.8-73,16.2-24.1,50.4-32.9,67.5-35.9,10.1-2.1,20.4-1.4,30.2,2.1,10.6,4.9,16.4,15.3-1.5,28.8-28.7,21.6-87.8,10.8-87.8,10.8-7.9,6.4-6.6,11.2-6.6,11.2,146.8,21.1,141.1-45.5,119-57.8-22.1-12.3-93.1-13.7-134.5,35.8-41.4,49.5,4.8,92.6,4.8,92.6-14.5,7.8-46.7,74.4,11.4,98,58.2,23.5,136.3-21.1,136.3-21.1-3.2-2-8-17.6-8-17.6Z"/>
  <path d="M301.1,203c77.6-89.2,117.3-95,117.3-95l28.2-60.8s-139.5,43.1-209.3,236.5c0,0-27.9,89.9,8.2,144,10.6-5.4,29-14.8,38.1-18.9,12.7-6.5,31.1-14.6,46.3-15.9h5.1c32.1.5,36.1,35.5,36.6,46.3,10.2-16.3,11.7-35.4,4.9-44.4,0,0-19-49-115.5,3.5-.2-.2-37.9-106,40-195.2Z"/>
  <path d="M301.8,131s-17.6,25.9-22.5,33.8l-60.3-79.4s-57.4,89.7-63.6,102.5c0,0-36.9-52.4-116-105.4,0,0,94.4,156.6,16.8,174.6,0,0,11-113.8-54.7-212.1,0,0,94.8,38.7,150.6,87.2,0,0,57.4-74.4,66.8-84.7.1-.3,65.2,62.3,82.9,83.5Z"/>
  <path d="M325.3,316.3c7.7-39.4,31.7-113.5,68.7-158.4,0,0-33.6,107.8-38.8,181.1-.7,0-1.4,0-2.1,0h0c-9.5.5-18.2,1.7-26.2,3.2-.8.2-1.5.4-2.3.7-.3,0-.5,0-.8,0-36.5,7.8-55.7,24.6-55.7,24.6,12.2-26.2,39.5-42.7,57.1-51Z"/>
  <path d="M353.3,418.9c-2.7,6.4-9.3,13.6-24.2,17.8-28,7.8-46,.7-56.9-13.6-8.2,3.4-17.4,7.3-23,10.3,9.8,12,22,20.9,35.4,25.8,30.5,12.3,53.6,8.4,69.4-2.3,5.5-16.8,3.2-31.5-.7-38.1Z"/>
</svg>